<?xml version="1.0" encoding="UTF-8"?>
<svg id="Layer_2" data-name="Layer 2" xmlns="http://www.w3.org/2000/svg" viewBox="0 0 391.79 239.21">
  <defs>
    <style>
      .cls-1 {
        fill: fff;
        stroke: #fff;
        stroke-miterlimit: 10;
        stroke-width: .5px;
      }
    </style>
  </defs>
  <g id="Layer_1-2" data-name="Layer 1">
    <g>
      <path class="cls-1" d="m266.82,155.31h8.59c4.55,0,8.26-3.7,8.26-8.25v-3.08c0-4.55-3.71-8.26-8.26-8.26h-7.08c-.06,0-.22-.05-.35-.08-.02,0-.36-.09-.38-.1-.64-.15-1.3.19-1.56.8-.28.63-.46,1.27-.6,2.06v15.52c0,.76.62,1.38,1.38,1.38Z"/>
      <path class="cls-1" d="m380.83,127.33c-.25-.4-.69-.65-1.17-.65h-20.62c-1.79,0-3.37-1.15-3.93-2.85-6.27-19.04-26.23-23.93-30.44-24.75h-80.76c-5.39,0-9.78,4.39-9.78,9.78v52.28c0,5.39,4.39,9.78,9.78,9.78h3.46c5.4,0,9.78-4.39,9.78-9.78v-23.26c0-.22.02-.43.05-.63.09-.58,2.36-14.27,16.51-13.64,15.43.34,17.65,11.41,17.9,12.86.81,2.66,1.25,5.56,1.73,8.79,2.79,18.63,8.83,32.76,58.38,31.08.92-.06,1.97.32,2.79,1.07.87.78,1.39,1.85,1.42,2.94.04,1.1-.36,2.15-1.11,2.96-.75.81-1.78,1.27-2.89,1.31-29.28.98-48.15-3.94-57.7-14.99-.39-.45-1.03-.61-1.57-.37-.55.23-.89.78-.85,1.38.02.22.05.42.07.63.03.2.06.4.06.6v3.08c0,3.42-1.08,6.74-3.13,9.59-.44.62-.31,1.47.3,1.92,4.33,3.18,6.81,8.02,6.81,13.3v3.08c0,3.43-1.08,6.75-3.12,9.59-.44.61-.31,1.47.3,1.92,4.33,3.19,6.81,8.04,6.81,13.3v3.08c0,1.37-.23,2.8-.71,4.5-.12.42-.03.86.23,1.21.26.34.67.55,1.1.55h36.22c.21,0,.41-.05.6-.14l41.71-19.97c.28-.14.51-.37.65-.65,22.78-47.73,6.62-80.09,1.12-88.87Z"/>
      <path class="cls-1" d="m217.31,155.31h7.18c.76,0,1.38-.62,1.38-1.38v-16.83c0-.76-.62-1.38-1.38-1.38h-7.18c-4.55,0-8.26,3.7-8.26,8.26v3.08c0,4.55,3.7,8.25,8.26,8.25Z"/>
      <path class="cls-1" d="m275.41,183.2c4.55,0,8.26-3.7,8.26-8.26v-3.08c0-4.55-3.71-8.26-8.26-8.26h-8.98c-.66,0-1.22.46-1.35,1.11-1.69,8.39-9.13,14.49-17.69,14.49h-3.46c-8.56,0-16-6.09-17.69-14.49-.13-.64-.7-1.11-1.35-1.11h-7.56c-4.55,0-8.26,3.7-8.26,8.26v3.08c0,4.55,3.7,8.26,8.26,8.26h58.1Z"/>
      <path class="cls-1" d="m229.28,219.37h54.11c4.56,0,8.26,3.7,8.26,8.26v3.07c0,4.56-3.7,8.26-8.26,8.26h-54.12c-4.56,0-8.25-3.7-8.25-8.25v-3.08c0-4.56,3.7-8.26,8.26-8.26Z"/>
      <path class="cls-1" d="m221.31,191.48h58.09c4.56,0,8.26,3.7,8.26,8.26v3.08c0,4.56-3.7,8.26-8.26,8.26h-58.09c-4.56,0-8.26-3.7-8.26-8.26v-3.08c0-4.56,3.7-8.26,8.26-8.26Z"/>
      <path class="cls-1" d="m126.05,135.54c-.15.03-.3.07-.74.18h-7.08c-4.55,0-8.25,3.7-8.25,8.26v3.08c0,4.55,3.7,8.26,8.25,8.26h8.6c.76,0,1.38-.62,1.38-1.38v-15.54c0-.1-.01-.2-.03-.3-.09-.42-.27-1.07-.6-1.78-.27-.59-.91-.92-1.53-.78Z"/>
      <path class="cls-1" d="m164.37,219.36h-54.11c-4.55,0-8.26,3.71-8.26,8.27v3.08c0,4.55,3.71,8.26,8.26,8.26h54.11c4.55,0,8.25-3.7,8.25-8.26v-3.08c0-4.56-3.7-8.27-8.25-8.27Z"/>
      <path class="cls-1" d="m97.71,202.82v-3.08c0-5.27,2.48-10.12,6.82-13.3.61-.45.74-1.3.3-1.92-2.04-2.85-3.13-6.16-3.13-9.59v-3.09c0-.21.03-.42.06-.62.03-.2.05-.41.07-.62.05-.59-.3-1.15-.85-1.38-.54-.23-1.18-.08-1.57.37-9.55,11.05-28.46,16-57.7,15.01-2.29-.08-4.09-2-4.01-4.27.08-2.32,2.25-4,4.18-4,.03,0,.06,0,.09,0,53.4,1.73,56.04-15.77,58.35-31.24.43-2.9.87-5.9,1.75-8.83.2-1.26,2.44-12.32,17.89-12.66h.44c11.04,0,15.32,8.92,16.04,13.64.03.21.05.42.05.64v23.26c0,5.39,4.39,9.78,9.78,9.78h3.45c5.39,0,9.77-4.39,9.77-9.78v-52.28c0-5.4-4.38-9.78-9.77-9.78l-81.03.03c-3.93.76-23.85,5.55-30.16,24.72-.57,1.71-2.15,2.86-3.94,2.86H13.88c-.46,0-.89.23-1.15.61-6.37,9.47-25.14,43.86,1.03,88.9.14.24.35.43.6.55l41.93,20.08c.19.09.39.14.6.14h36.22c.43,0,.84-.2,1.1-.55.26-.35.34-.8.22-1.21-.48-1.69-.71-3.11-.71-4.49v-3.08c0-5.28,2.48-10.12,6.81-13.3.61-.45.74-1.3.31-1.91-2.04-2.86-3.13-6.18-3.13-9.6Z"/>
      <path class="cls-1" d="m176.33,135.72h-7.18c-.76,0-1.38.62-1.38,1.38v16.83c0,.76.62,1.38,1.38,1.38h7.18c4.55,0,8.25-3.7,8.25-8.26v-3.08c0-4.55-3.7-8.26-8.25-8.26Z"/>
      <path class="cls-1" d="m176.33,163.61h-7.56c-.66,0-1.22.46-1.35,1.11-1.7,8.39-9.14,14.48-17.69,14.48h-3.45c-8.56,0-16-6.09-17.69-14.48-.13-.64-.7-1.11-1.35-1.11h-8.99c-4.55,0-8.25,3.7-8.25,8.24v3.09c0,4.55,3.7,8.25,8.25,8.25h58.1c4.55,0,8.25-3.7,8.25-8.25v-3.09c0-4.55-3.7-8.24-8.25-8.24Z"/>
      <path class="cls-1" d="m172.34,191.48h-58.1c-4.56,0-8.27,3.7-8.27,8.26v3.08c0,4.55,3.71,8.26,8.27,8.26h58.1c4.55,0,8.25-3.7,8.25-8.26v-3.08c0-4.55-3.7-8.26-8.25-8.26Z"/>
      <path class="cls-1" d="m199.08.25c-4.11,0-7.45,3.34-7.45,7.45v47.94c0,4.11,3.34,7.45,7.45,7.45s7.45-3.34,7.45-7.45V7.7c0-4.11-3.34-7.45-7.45-7.45Z"/>
      <path class="cls-1" d="m241.54,75.99c1.9,0,3.81-.73,5.26-2.18l34.76-34.76c2.91-2.91,2.91-7.62,0-10.53-2.9-2.91-7.63-2.91-10.53,0l-34.76,34.76c-2.91,2.91-2.91,7.62,0,10.53,1.45,1.46,3.36,2.18,5.26,2.18Z"/>
      <path class="cls-1" d="m150.81,73.23c1.46,1.45,3.36,2.18,5.26,2.18s3.81-.73,5.27-2.18c2.91-2.91,2.91-7.62,0-10.53l-34.2-34.19c-2.91-2.9-7.62-2.91-10.53,0-2.91,2.91-2.91,7.62,0,10.53l34.2,34.19Z"/>
    </g>
  </g>
</svg>