<?xml version="1.0" encoding="UTF-8"?>
<svg id="Layer_2" data-name="Layer 2" xmlns="http://www.w3.org/2000/svg" viewBox="0 0 339.78 305.31">
  <defs>
    <style>
      .cls-1 {
        fill: fff;
        stroke: #fff;
        stroke-miterlimit: 10;
        stroke-width: .5px;
      }
    </style>
  </defs>
  <g id="Layer_1-2" data-name="Layer 1">
    <g>
      <path class="cls-1" d="m286.86,249.85l-49.12,55.13c-4.86-3.28-11.47-9.02-12.06-15.05-.34-3.58,1.77-7.3,5.99-11.08h2.98c14.39,0,26.09-11.7,26.09-26.08v-59.27c0-3.05-2.47-5.52-5.51-5.52s-5.52,2.47-5.52,5.52v59.27c0,8.3-6.75,15.05-15.06,15.05h-5.11c-8.3,0-15.05-6.75-15.05-15.05v-29.92c0-3.06-2.47-5.52-5.52-5.52s-5.51,2.46-5.51,5.51l-.03,39.41c0,8.3-6.76,15.05-15.06,15.05h-5.1c-8.3,0-15.06-6.75-15.06-15.05v-40.29c0-3.05-2.46-5.52-5.51-5.52s-5.52,2.47-5.52,5.52v32.65c0,8.3-6.75,15.05-15.05,15.05h-5.11c-8.3,0-15.06-6.75-15.06-15.05v-29.88c0-3.05-2.47-5.52-5.52-5.52s-5.51,2.47-5.51,5.52v12.73c0,8.23-6.63,14.93-14.83,15.05-8.2-.12-14.83-6.82-14.83-15.05v-88.42c0-8.19,6.59-14.88,14.74-15.05,3.11.08,8.92,1.13,12.01,3.24,2.11,1.43,3.55,2.25,4.54,2.76,1.2,1.52,3.15,2.33,5.14,2.05,2.7-.4,4.71-2.73,4.71-5.46,0-8.46,6.75-18.79,14.61-18.79h5.11c8.3,0,15.05,6.75,15.05,15.05,0,3.04,2.47,5.51,5.52,5.51s5.51-2.47,5.51-5.51c0-8.3,6.76-15.05,15.06-15.05h5.1c8.3,0,15.06,6.75,15.06,15.05,0,3.04,2.46,5.51,5.51,5.51h.03c3.05,0,5.52-2.47,5.52-5.51,0-8.3,6.75-15.05,15.05-15.05h5.2c3.27-.09,9.2.84,11.13,2.91,5.38,5.74,30.57,43.5,40.98,59.32v69.85Z"/>
      <path class="cls-1" d="m47.77,130.09c-1.16,0-2.33-.27-3.43-.84L4.26,108.38c-3.65-1.9-5.06-6.4-3.17-10.05,1.9-3.65,6.39-5.06,10.05-3.17l40.08,20.87c3.65,1.9,5.06,6.4,3.17,10.05-1.33,2.55-3.92,4.01-6.61,4.01Z"/>
      <path class="cls-1" d="m172.62,78.86c-4.11,0-7.45-3.34-7.45-7.45V7.7c0-4.11,3.34-7.45,7.45-7.45s7.45,3.34,7.45,7.45v63.71c0,4.11-3.34,7.45-7.45,7.45Z"/>
      <path class="cls-1" d="m299.58,120.46c-2.6,0-5.12-1.36-6.49-3.78-2.03-3.58-.76-8.12,2.82-10.15l32.51-18.39c3.58-2.03,8.13-.76,10.15,2.82,2.03,3.58.76,8.12-2.82,10.15l-32.51,18.39c-1.16.66-2.42.97-3.66.97Z"/>
      <path class="cls-1" d="m99.01,95.27c-2.2,0-4.38-.98-5.85-2.84l-44.09-55.96c-2.54-3.23-1.99-7.91,1.24-10.46,3.24-2.55,7.91-1.99,10.46,1.24l44.09,55.96c2.54,3.23,1.99,7.91-1.24,10.46-1.37,1.08-2.99,1.6-4.61,1.6Z"/>
      <path class="cls-1" d="m245.67,87.99c-1.39,0-2.81-.39-4.06-1.21-3.45-2.25-4.41-6.86-2.17-10.31l37.15-56.91c2.24-3.44,6.86-4.42,10.31-2.17,3.45,2.25,4.41,6.86,2.17,10.31l-37.15,56.91c-1.43,2.19-3.81,3.38-6.24,3.38Z"/>
    </g>
  </g>
</svg>