<?xml version="1.0" encoding="UTF-8"?>
<svg id="Layer_2" data-name="Layer 2" xmlns="http://www.w3.org/2000/svg" viewBox="0 0 210.5 217.25">
  <defs>
    <style>
      .cls-1 {
        stroke-linecap: round;
      }

      .cls-1, .cls-2 {
        fill: none;
        stroke: #fff;
        stroke-linejoin: round;
        stroke-width: .5px;
      }
    </style>
  </defs>
  <g id="Layer_1-2" data-name="Layer 1">
    <g>
      <path class="cls-2" d="m126.25,147.25v-73.5c0-5.8,4.7-10.5,10.5-10.5h0c5.8,0,10.5,4.7,10.5,10.5v52.5"/>
      <path class="cls-2" d="m126.25,217.25v-3.5c0-11.36-3.68-22.41-10.5-31.5h0c-6.82-9.09-10.5-20.14-10.5-31.5v-49c0-5.8,4.7-10.5,10.5-10.5h0c5.8,0,10.5,4.7,10.5,10.5v45.5"/>
      <path class="cls-2" d="m147.25,91.25v-31.5c0-5.8,4.7-10.5,10.5-10.5h0c5.8,0,10.5,4.7,10.5,10.5v66.5"/>
      <path class="cls-2" d="m168.25,126.25v-52.5c0-5.8,4.7-10.5,10.5-10.5h0c5.8,0,10.5,4.7,10.5,10.5v52.5"/>
      <path class="cls-2" d="m189.25,126.25v-38.5c0-5.8,4.7-10.5,10.5-10.5h0c5.8,0,10.5,4.7,10.5,10.5v63c0,11.36-3.68,22.41-10.5,31.5h0c-6.82,9.09-10.5,20.14-10.5,31.5v3.5"/>
      <path class="cls-2" d="m119.25,193.99c-6.77,1.48-13.79,2.26-21,2.26C44.13,196.25.25,152.37.25,98.25S44.13.25,98.25.25c46.92,0,86.13,32.97,95.74,77"/>
      <path class="cls-1" d="m21.25,98.25c0-42.46,34.54-77,77-77"/>
      <path class="cls-1" d="m42.25,98.25c0-17.65,8.2-33.41,21-43.68,9.59-7.7,21.77-12.32,35-12.32"/>
      <path class="cls-2" d="m98.25,133.25c-19.33,0-35-15.67-35-35s15.67-35,35-35c11.45,0,21.61,5.5,28,14"/>
    </g>
  </g>
</svg>