<?xml version="1.0" encoding="UTF-8"?>
<svg id="Layer_2" data-name="Layer 2" xmlns="http://www.w3.org/2000/svg" viewBox="0 0 210.5 210.5">
  <defs>
    <style>
      .cls-1 {
        fill: none;
        stroke: #fff;
        stroke-linejoin: round;
        stroke-width: .5px;
      }
    </style>
  </defs>
  <g id="Layer_1-2" data-name="Layer 1">
    <g>
      <path class="cls-1" d="m98.25,210.02C43.52,206.42.25,160.89.25,105.25S47.26.25,105.25.25c50.8,0,93.17,36.07,102.9,84"/>
      <path class="cls-1" d="m98.25,188.96c-43.06-3.57-77-39.75-77-83.71"/>
      <path class="cls-1" d="m105.25,21.25c41.06,0,75.33,29.6,82.58,68.59"/>
      <path class="cls-1" d="m98.25,167.86c-31.46-3.49-56-30.24-56-62.61"/>
      <path class="cls-1" d="m105.25,42.25c30.83,0,56.56,22.26,61.96,51.55"/>
      <path class="cls-1" d="m119.25,144.85c-4.38,1.55-9.09,2.4-14,2.4-23.16,0-42-18.84-42-42s18.84-42,42-42c20.78,0,38.07,15.16,41.42,35"/>
      <circle class="cls-1" cx="105.25" cy="105.25" r="7"/>
      <circle class="cls-1" cx="126.25" cy="196.25" r="14"/>
      <circle class="cls-1" cx="196.25" cy="189.25" r="14"/>
      <polygon class="cls-1" points="210.25 133.25 140.25 147.25 140.25 119.25 210.25 105.25 210.25 133.25"/>
      <line class="cls-1" x1="210.25" y1="189.25" x2="210.25" y2="133.25"/>
      <line class="cls-1" x1="140.25" y1="196.25" x2="140.25" y2="147.25"/>
    </g>
  </g>
</svg>