<?xml version="1.0" encoding="UTF-8"?>
<svg id="Layer_2" data-name="Layer 2" xmlns="http://www.w3.org/2000/svg" viewBox="0 0 207.47 326.37">
  <defs>
    <style>
      .cls-1 {
        fill: fff;
        stroke: #fff;
        stroke-miterlimit: 10;
        stroke-width: .5px;
      }
    </style>
  </defs>
  <g id="Layer_1-2" data-name="Layer 1">
    <path class="cls-1" d="m138.82,17.82c0-9.69,7.88-17.57,17.57-17.57s17.58,7.88,17.58,17.56l-.39,110.84c-13.57-2.21-28.61-4.1-37.62-5.16,1.68-.94,2.86-2.68,2.86-4.74V17.82Zm-28.62,75.36c9.69,0,17.58,7.88,17.58,17.57v8c0,1.59.69,2.99,1.75,4-.29-.04-.68-.08-.9-.1-5.34-1.02-16.01-.1-20.31,10.48-6.06,14.93-1.87,30.13,10.42,37.8.33.19.65.36,1.01.48l7.95,2.96c-.41,9.33-8.07,16.81-17.5,16.81s-17.57-7.88-17.57-17.57v-62.86c0-9.69,7.88-17.57,17.57-17.57m-46.19,0c9.69,0,17.58,7.88,17.58,17.57v51.83c0,9.69-7.89,17.57-17.58,17.57s-17.57-7.88-17.57-17.57v-51.83c0-9.69,7.88-17.57,17.57-17.57m136.33,126.6c-6.31,16.63-29.22,68.09-29.45,68.61-.32.71-.48,1.47-.48,2.25v17c-53.44,36.01-123.64,9.46-138.91,2.95l-.73-27.46c-1.3-12.59-14.03-20.57-15.54-21.48C.29,252.93.25,228.95.25,228.66V61.35c0-9.69,7.88-17.57,17.57-17.57s17.58,7.88,17.58,17.57v101.24c0,15.78,12.84,28.61,28.61,28.61,7.52,0,14.32-2.97,19.44-7.73,4.03,10.92,14.46,18.76,26.75,18.76,14.16,0,25.88-10.37,28.14-23.9l16.6,6.16-1.13,4.45c-10.2,5.42-49.07,28.52-48.2,65.19.08,3,2.53,5.39,5.52,5.39.05,0,.09,0,.14-.01,3.04-.07,5.45-2.6,5.38-5.64-.82-34.14,43.82-55.95,44.28-56.17,1.47-.7,2.56-2.04,2.97-3.62l2.96-11.68c.69-2.73-.8-5.54-3.43-6.52l-39.27-14.58c-7.35-4.89-9.56-14.25-5.59-24,1.9-4.71,7.12-3.96,8.1-3.78.18.04.36.07.54.09,22.81,2.5,61.61,7.76,68.59,11.19,17.3,8.51,11.65,56.27,4.56,74.99"/>
  </g>
</svg>