<?xml version="1.0" encoding="UTF-8"?>
<svg id="Layer_2" data-name="Layer 2" xmlns="http://www.w3.org/2000/svg" viewBox="0 0 264.03 316.11">
  <defs>
    <style>
      .cls-1 {
        fill: fff;
        stroke: #fff;
        stroke-miterlimit: 10;
        stroke-width: .5px;
      }
    </style>
  </defs>
  <g id="Layer_1-2" data-name="Layer 1">
    <path class="cls-1" d="m262.16,170.92l-62.48,65.93c-.17.18-.34.39-.48.59-.14.19-14.49,19.77-44.49,28.76-21.31,6.39-21.94,18.69-21.94,20.07,0,.22.01.44.03.65.67,5.59.96,11.69.71,14.04-28.87,27.83-87.45,9.14-102.01,3.89l-.72-27.24c-1.31-12.59-14.03-20.57-15.54-21.47C.3,247.42.25,223.44.25,223.15V55.84c0-9.69,7.89-17.58,17.58-17.58s17.57,7.89,17.57,17.58v79.93c0,3.04,2.48,5.51,5.52,5.51s5.51-2.47,5.51-5.51v-13.75c0-9.69,7.89-17.58,17.58-17.58s17.58,7.88,17.58,17.58v8c0,3.05,2.46,5.52,5.52,5.52s5.52-2.47,5.52-5.52v-13.74c0-9.7,7.88-17.59,17.57-17.59s17.58,7.89,17.58,17.59v7.99c0,3.05,2.46,5.52,5.52,5.52s5.52-2.47,5.52-5.52V17.83c0-9.69,7.88-17.58,17.57-17.58s17.58,7.89,17.58,17.56l-.4,128.95c-.2,2.68-.18,5.15,0,7.47v.03s.71,22.51.71,22.51c-.15,11.32,8.5,17.63,13.64,19.59.63.24,1.3.36,1.95.36,2.23,0,4.33-1.36,5.16-3.56,1.08-2.85-.34-6.03-3.19-7.11-.07-.03-6.6-2.58-6.52-9.37l-.1-3.34c6.21,2.65,12.4,1.17,13.22.94.69-.19,1.34-.51,1.9-.95l29.08-22.49c.59-.5,14.71-12.1,26.66-2.43,11.07,8.95,7.34,19.72,6.09,22.52"/>
  </g>
</svg>