<?xml version="1.0" encoding="UTF-8"?>
<svg id="Layer_2" data-name="Layer 2" xmlns="http://www.w3.org/2000/svg" viewBox="0 0 26.5 32.29">
  <defs>
    <style>
      .cls-1 {
        fill: none;
        stroke: #000;
        stroke-miterlimit: 10;
        stroke-width: .5px;
      }
    </style>
  </defs>
  <g id="base">
    <path class="cls-1" d="m19.96,9.42c.96,0,1.73.78,1.73,1.73v5.11c0,.96-.78,1.73-1.73,1.73s-1.73-.78-1.73-1.73v-5.11c0-.96.78-1.73,1.73-1.73m-4.56,0c.96,0,1.73.78,1.73,1.73v6.2c0,.96-.78,1.73-1.73,1.73s-1.73-.78-1.73-1.73v-6.2c0-.96.78-1.73,1.73-1.73m10.85,13.37s0,2.39-1.49,3.25c-.14.09-1.4.87-1.53,2.16l-.07,2.68c-5.41,2.52-9.12.25-9.99-.38v-1.48c0-.14-.06-1.35-2.16-1.98-2.96-.89-4.37-2.82-4.39-2.84-.01-.02-.03-.04-.05-.06L.41,17.63c-.12-.26-.5-1.33.6-2.22,1.18-.95,2.57.19,2.65.25l2.85,2.2c.06.04.12.07.19.09.08.02.69.17,1.31-.09v.35c0,.62-.59.87-.65.9-.28.11-.42.42-.32.7.08.22.29.35.51.35.06,0,.13-.01.19-.04.51-.19,1.36-.82,1.34-1.91l.07-2.19c.02-.23.02-.49,0-.76l-.04-13.3c0-.96.78-1.73,1.73-1.73s1.73.78,1.73,1.73v15.37c0,1.56,1.27,2.82,2.82,2.82,1.21,0,2.24-.77,2.64-1.85.5.47,1.18.76,1.92.76,1.56,0,2.82-1.27,2.82-2.82V6.28c0-.96.78-1.74,1.73-1.74s1.73.78,1.73,1.74v16.51Z"/>
  </g>
</svg>