<?xml version="1.0" encoding="UTF-8"?>
<svg id="Layer_2" data-name="Layer 2" xmlns="http://www.w3.org/2000/svg" viewBox="0 0 31.2 30.77">
  <defs>
    <style>
      .cls-1 {
        fill: none;
        stroke: #000;
        stroke-miterlimit: 10;
        stroke-width: .5px;

      }
    </style>
  </defs>
  <g id="base">
    <g>
      <path class="cls-1" d="m28.47,14.36c-.2,0-.37-.16-.37-.36,0-.34-.15-.44-.2-.48-.25-.13-.54-.14-.8-.03-.95.36-1.58-.45-1.78-.93-.08-.19,0-.41.2-.48.19-.08.41,0,.48.2.03.07.33.71.84.52.48-.19,1.03-.15,1.48.11.35.24.55.65.53,1.07,0,.2-.16.37-.36.38h0Z"/>
      <path class="cls-1" d="m27.55,10.04c-.5-.02-.99-.22-1.37-.55-.15-.13-.17-.37-.04-.52.13-.15.37-.17.52-.04.09.07.86.71,1.42.12.35-.37,1-.78,1.69-.68.51.08.94.42,1.14.89.09.18.02.4-.16.5-.18.09-.4.02-.5-.16-.1-.25-.32-.44-.59-.49-.4,0-.78.16-1.04.45-.27.31-.66.48-1.07.48h0Z"/>
      <g>
        <path class="cls-1" d="m3.01,18.7c-.26.18-.35.51-.24.8.27.66.65,1.27,1.13,1.81.21.23.55.28.83.13l.67-.38c-.79-.79-1.39-1.75-1.76-2.8l-.63.44h0Z"/>
        <path class="cls-1" d="m14.86,14.88c-1.42-1.48-1.06-6.18-.9-8.68.08-1.16-.49-5.45-2.18-5.19-1.24.19-.14,3.8-.16,4.68-.03,1.4.07,3.38-.72,5.99-.03.15-.18.25-.33.23-.05,0-.09-.03-.13-.06-.41-.29-.94-.53-1.36-.47-.54.05-.99.45-1.09.99h0c-.03.26-.06.68-.07.87,0,.2-.17.37-.37.37h0c-.21,0-.37-.17-.37-.38h0c0-.2.03-.58.06-.86.01-.12-.07-.22-.19-.24,0,0,0,0,0,0-.3-.02-.59.04-.86.16-.26.12-.44.35-.48.63-.03.34-.02.68.03,1.02.04.2-.1.4-.3.43,0,0,0,0,0,0-.02,0-.04,0-.07,0-.18,0-.33-.13-.37-.31-.04-.36-.05-.72-.03-1.08.01-.2-.04-.39-.14-.56-.37-.6-1.22-2.02-1.3-2.52-.12-.74-1.49-2.62-2.75-2.55-1.56.08.84,2.36,1.24,3.93.15.59,1.34,2.95,2.13,5.01.17.44.34.86.52,1.27l-.4.27c.29,1,1.29,2.34,1.79,2.86l.06-.04c.27.56.55,1.15.83,1.78,1.13,2.52,1.38,5.42,1.38,7.6,0,.27.22.49.49.49h6.02c.27,0,.5-.22.5-.5,0-.03,0-.07-.01-.1-.7-3.54-1.92-6.68-.67-8.38,1.61-2.18,4.99-4.44,7.93-4.04.52.08,1.01-.28,1.08-.8.04-.29-.05-.59-.26-.8-1.79-1.84-7.08.52-8.55-1.02h0Z"/>
      </g>
      <path class="cls-1" d="m29.92,3.21c-.79-.4-1.39-.27-1.75-.08-.7.36-1.1,1.2-1.19,1.87-.16,1.13-1.61,1.02-1.67,1.01-.2-.02-.38.13-.4.34-.02.2.13.38.33.4.08,0,.16.01.25.01.81,0,2.04-.33,2.22-1.66.06-.47.34-1.08.8-1.32.35-.16.75-.13,1.07.08.18.1.4.03.5-.15.1-.18.03-.4-.15-.5,0,0,0,0-.01,0h0Z"/>
      <path class="cls-1" d="m19.3,2.64c.49.25.21.9.18.97-.09.18,0,.41.18.49s.41,0,.49-.18c0,0,0,0,0,0,.22-.47.38-1.48-.52-1.94-.25-.12-.44-.34-.52-.61,0-.06-.03-.23.21-.47.15-.14.16-.37.02-.52-.14-.15-.37-.16-.52-.02,0,0,0,0,0,0-.33.27-.49.69-.44,1.11.11.51.45.94.92,1.17h0Z"/>
      <path class="cls-1" d="m25,.59c-.02-.2-.2-.35-.41-.33-.51.02-.98.29-1.24.74-.34.6-.21,1.35.01,1.82.35.73-.53,1.22-.63,1.27-.18.09-.25.32-.16.5.09.18.32.25.5.16h0c.56-.29,1.48-1.14.96-2.25-.18-.36-.19-.77-.04-1.14.15-.23.4-.37.67-.37.2-.02.35-.2.33-.41h0Z"/>
      <path class="cls-1" d="m16.58,14.59l2.01-1.13c1.14.58,2.5.56,3.63-.06-2.05-1.99-3.59-4.45-4.5-7.16-1.05.74-1.66,1.95-1.63,3.23l-1.64,1.14c.04,1.58.25,3.05.83,3.66.2.2.63.31,1.29.32h0Z"/>
      <path class="cls-1" d="m18.36,5.83c.13.41,1.16,2.89,2.03,4.19.75,1.05,1.58,2.04,2.47,2.98,1.86-1.39,2.12-4.1,1.11-5.7-1-1.6-3.55-2.55-5.62-1.47h0Z"/>
    </g>
  </g>
</svg>