<?xml version="1.0" encoding="UTF-8"?>
<svg id="Layer_2" data-name="Layer 2" xmlns="http://www.w3.org/2000/svg" viewBox="0 0 21.41 20.41">
  <defs>
    <style>
      .cls-1 {
        fill: none;
      }
    </style>
  </defs>
  <g id="Layer_1-2" data-name="Layer 1">
    <g>
      <path class="cls-1" d="m18.58,18.65c-.26,0-.51-.1-.7-.28L.57,2.1c-.41-.39-.43-1.04-.04-1.45l.07-.07c.2-.21.46-.32.75-.32.26,0,.51.1.7.28l17.3,16.27c.2.19.31.44.32.72,0,.27-.09.54-.28.73l-.07.08c-.2.21-.46.32-.75.32Z"/>
      <path d="m1.35.5c.2,0,.39.07.53.21l17.3,16.27c.31.29.33.79.03,1.1l-.07.07c-.15.16-.35.24-.57.24-.2,0-.39-.07-.53-.21L.74,1.92c-.15-.14-.24-.33-.24-.54,0-.21.07-.4.21-.56l.07-.07c.15-.16.35-.24.57-.24m0-.5c-.34,0-.68.13-.93.4l-.07.07c-.48.51-.46,1.32.06,1.8l17.3,16.27c.25.23.56.35.87.35.34,0,.68-.13.93-.4l.07-.07c.48-.51.46-1.32-.06-1.8L2.22.35c-.25-.23-.56-.35-.87-.35h0Z"/>
    </g>
    <g>
      <path class="cls-1" d="m3.86,20.03c-.23,0-.45-.09-.62-.24l-.07-.07c-.18-.17-.28-.39-.28-.63s.08-.47.24-.65L19.4,1.15c.17-.18.41-.28.66-.28.23,0,.45.09.62.25l.07.07c.18.17.28.39.28.63,0,.24-.08.47-.24.65L4.52,19.75c-.17.18-.41.28-.66.28Z"/>
      <path d="m20.06,1.24c.13,0,.26.05.36.14l.07.07c.1.1.16.23.17.37,0,.14-.05.27-.14.38L4.25,19.49c-.1.11-.24.17-.38.17-.13,0-.26-.05-.36-.14l-.07-.07c-.1-.1-.16-.23-.17-.37,0-.14.05-.27.14-.38L19.67,1.4c.1-.11.24-.17.38-.17m0-.75c-.34,0-.68.13-.93.4L2.86,18.19c-.48.51-.46,1.32.06,1.8l.07.07c.25.23.56.35.87.35.34,0,.68-.13.93-.4L21.06,2.71c.48-.51.46-1.32-.06-1.8l-.07-.07c-.25-.23-.56-.35-.87-.35h0Z"/>
    </g>
  </g>
</svg>